<mxfile host="Electron" modified="2023-06-09T04:06:06.752Z" agent="Mozilla/5.0 (Macintosh; Intel Mac OS X 10_15_7) AppleWebKit/537.36 (KHTML, like Gecko) draw.io/21.3.7 Chrome/112.0.5615.204 Electron/24.5.0 Safari/537.36" etag="DeQc6hYnzT2gLbeF98NE" version="21.3.7" type="device" pages="3">
  <diagram id="C5RBs43oDa-KdzZeNtuy" name="Default">
    <mxGraphModel dx="1129" dy="698" grid="1" gridSize="10" guides="1" tooltips="1" connect="1" arrows="1" fold="1" page="1" pageScale="1" pageWidth="280" pageHeight="100" math="0" shadow="0">
      <root>
        <mxCell id="WIyWlLk6GJQsqaUBKTNV-0" />
        <mxCell id="WIyWlLk6GJQsqaUBKTNV-1" parent="WIyWlLk6GJQsqaUBKTNV-0" />
        <mxCell id="cYpTQVSlRbGwMReDjjp4-0" value="Your SimpleX Client" style="rounded=0;whiteSpace=wrap;html=1;" vertex="1" parent="WIyWlLk6GJQsqaUBKTNV-1">
          <mxGeometry x="10" y="277" width="120" height="60" as="geometry" />
        </mxCell>
        <mxCell id="cYpTQVSlRbGwMReDjjp4-1" value="SimpleX Hosted Servers (e.g. smp8.simplex.chat)" style="swimlane;whiteSpace=wrap;html=1;strokeColor=#666666;dashed=1;" vertex="1" parent="WIyWlLk6GJQsqaUBKTNV-1">
          <mxGeometry x="240" y="133.5" width="350" height="330" as="geometry">
            <mxRectangle x="240" y="126.5" width="320" height="30" as="alternateBounds" />
          </mxGeometry>
        </mxCell>
        <mxCell id="cYpTQVSlRbGwMReDjjp4-2" value="" style="rounded=0;whiteSpace=wrap;html=1;strokeColor=#d9d9d9;" vertex="1" parent="cYpTQVSlRbGwMReDjjp4-1">
          <mxGeometry x="35" y="33.5" width="260" height="243" as="geometry" />
        </mxCell>
        <mxCell id="cYpTQVSlRbGwMReDjjp4-3" value="" style="rounded=0;whiteSpace=wrap;html=1;strokeColor=#d9d9d9;" vertex="1" parent="cYpTQVSlRbGwMReDjjp4-1">
          <mxGeometry x="45" y="43.5" width="260" height="243" as="geometry" />
        </mxCell>
        <mxCell id="cYpTQVSlRbGwMReDjjp4-4" value="" style="rounded=0;whiteSpace=wrap;html=1;" vertex="1" parent="cYpTQVSlRbGwMReDjjp4-1">
          <mxGeometry x="55" y="53.5" width="260" height="243" as="geometry" />
        </mxCell>
        <mxCell id="cYpTQVSlRbGwMReDjjp4-5" value="&lt;font color=&quot;#009900&quot;&gt;Your receive queue 1&lt;/font&gt;" style="rounded=0;whiteSpace=wrap;html=1;strokeColor=#009900;strokeWidth=2;" vertex="1" parent="cYpTQVSlRbGwMReDjjp4-1">
          <mxGeometry x="55" y="96.75" width="150" height="33.5" as="geometry" />
        </mxCell>
        <mxCell id="cYpTQVSlRbGwMReDjjp4-6" value="Your receive queue N" style="rounded=0;whiteSpace=wrap;html=1;" vertex="1" parent="cYpTQVSlRbGwMReDjjp4-1">
          <mxGeometry x="55" y="216.75" width="150" height="33.5" as="geometry" />
        </mxCell>
        <mxCell id="cYpTQVSlRbGwMReDjjp4-7" value=".&lt;br style=&quot;font-size: 15px;&quot;&gt;.&lt;br style=&quot;font-size: 15px;&quot;&gt;." style="text;html=1;strokeColor=none;fillColor=none;align=center;verticalAlign=middle;whiteSpace=wrap;rounded=0;fontSize=15;fontStyle=1" vertex="1" parent="cYpTQVSlRbGwMReDjjp4-1">
          <mxGeometry x="100" y="160" width="60" height="30" as="geometry" />
        </mxCell>
        <mxCell id="cYpTQVSlRbGwMReDjjp4-8" value="Friend&#39;s receive queue" style="rounded=0;whiteSpace=wrap;html=1;strokeColor=#0000FF;strokeWidth=2;fontColor=#0000ff;" vertex="1" parent="cYpTQVSlRbGwMReDjjp4-1">
          <mxGeometry x="165" y="53.5" width="150" height="33" as="geometry" />
        </mxCell>
        <mxCell id="cYpTQVSlRbGwMReDjjp4-9" value="Friend&#39;s receive queue" style="rounded=0;whiteSpace=wrap;html=1;" vertex="1" parent="cYpTQVSlRbGwMReDjjp4-1">
          <mxGeometry x="165" y="263.5" width="150" height="33" as="geometry" />
        </mxCell>
        <mxCell id="cYpTQVSlRbGwMReDjjp4-10" style="edgeStyle=orthogonalEdgeStyle;rounded=0;orthogonalLoop=1;jettySize=auto;html=1;exitX=0;exitY=0.5;exitDx=0;exitDy=0;entryX=1;entryY=0.5;entryDx=0;entryDy=0;strokeColor=#009900;strokeWidth=2;" edge="1" parent="WIyWlLk6GJQsqaUBKTNV-1" source="cYpTQVSlRbGwMReDjjp4-11" target="cYpTQVSlRbGwMReDjjp4-5">
          <mxGeometry relative="1" as="geometry" />
        </mxCell>
        <mxCell id="cYpTQVSlRbGwMReDjjp4-11" value="Friend 1&#39;s SimpleX Client" style="rounded=0;whiteSpace=wrap;html=1;" vertex="1" parent="WIyWlLk6GJQsqaUBKTNV-1">
          <mxGeometry x="710" y="217" width="120" height="60" as="geometry" />
        </mxCell>
        <mxCell id="cYpTQVSlRbGwMReDjjp4-12" style="edgeStyle=orthogonalEdgeStyle;rounded=0;orthogonalLoop=1;jettySize=auto;html=1;exitX=0;exitY=0.5;exitDx=0;exitDy=0;entryX=1;entryY=0.5;entryDx=0;entryDy=0;" edge="1" parent="WIyWlLk6GJQsqaUBKTNV-1" source="cYpTQVSlRbGwMReDjjp4-13" target="cYpTQVSlRbGwMReDjjp4-6">
          <mxGeometry relative="1" as="geometry" />
        </mxCell>
        <mxCell id="cYpTQVSlRbGwMReDjjp4-13" value="Friend N&#39;s SimpleX Client" style="rounded=0;whiteSpace=wrap;html=1;" vertex="1" parent="WIyWlLk6GJQsqaUBKTNV-1">
          <mxGeometry x="710" y="337" width="120" height="60" as="geometry" />
        </mxCell>
        <mxCell id="cYpTQVSlRbGwMReDjjp4-14" value=".&lt;br style=&quot;font-size: 15px;&quot;&gt;.&lt;br style=&quot;font-size: 15px;&quot;&gt;." style="text;html=1;strokeColor=none;fillColor=none;align=center;verticalAlign=middle;whiteSpace=wrap;rounded=0;fontSize=15;fontStyle=1" vertex="1" parent="WIyWlLk6GJQsqaUBKTNV-1">
          <mxGeometry x="740" y="283.5" width="60" height="30" as="geometry" />
        </mxCell>
        <mxCell id="cYpTQVSlRbGwMReDjjp4-15" style="edgeStyle=orthogonalEdgeStyle;rounded=0;orthogonalLoop=1;jettySize=auto;html=1;exitX=1;exitY=0.5;exitDx=0;exitDy=0;entryX=-0.007;entryY=0.101;entryDx=0;entryDy=0;entryPerimeter=0;strokeColor=#0000FF;strokeWidth=2;" edge="1" parent="WIyWlLk6GJQsqaUBKTNV-1" source="cYpTQVSlRbGwMReDjjp4-8" target="cYpTQVSlRbGwMReDjjp4-11">
          <mxGeometry relative="1" as="geometry" />
        </mxCell>
        <mxCell id="cYpTQVSlRbGwMReDjjp4-16" style="edgeStyle=orthogonalEdgeStyle;rounded=0;orthogonalLoop=1;jettySize=auto;html=1;exitX=1;exitY=0.5;exitDx=0;exitDy=0;entryX=-0.018;entryY=0.837;entryDx=0;entryDy=0;entryPerimeter=0;" edge="1" parent="WIyWlLk6GJQsqaUBKTNV-1" source="cYpTQVSlRbGwMReDjjp4-9" target="cYpTQVSlRbGwMReDjjp4-13">
          <mxGeometry relative="1" as="geometry" />
        </mxCell>
        <mxCell id="cYpTQVSlRbGwMReDjjp4-17" style="edgeStyle=orthogonalEdgeStyle;rounded=0;orthogonalLoop=1;jettySize=auto;html=1;exitX=0.5;exitY=0;exitDx=0;exitDy=0;entryX=0;entryY=0.5;entryDx=0;entryDy=0;strokeColor=#0000FF;strokeWidth=2;" edge="1" parent="WIyWlLk6GJQsqaUBKTNV-1" source="cYpTQVSlRbGwMReDjjp4-0" target="cYpTQVSlRbGwMReDjjp4-8">
          <mxGeometry relative="1" as="geometry" />
        </mxCell>
        <mxCell id="cYpTQVSlRbGwMReDjjp4-18" style="edgeStyle=orthogonalEdgeStyle;rounded=0;orthogonalLoop=1;jettySize=auto;html=1;exitX=1;exitY=0.25;exitDx=0;exitDy=0;entryX=0;entryY=0.5;entryDx=0;entryDy=0;startArrow=block;startFill=1;endArrow=none;endFill=0;strokeColor=#009900;strokeWidth=2;" edge="1" parent="WIyWlLk6GJQsqaUBKTNV-1" source="cYpTQVSlRbGwMReDjjp4-0" target="cYpTQVSlRbGwMReDjjp4-5">
          <mxGeometry relative="1" as="geometry" />
        </mxCell>
        <mxCell id="cYpTQVSlRbGwMReDjjp4-19" style="edgeStyle=orthogonalEdgeStyle;rounded=0;orthogonalLoop=1;jettySize=auto;html=1;exitX=0;exitY=0.5;exitDx=0;exitDy=0;entryX=1;entryY=0.75;entryDx=0;entryDy=0;" edge="1" parent="WIyWlLk6GJQsqaUBKTNV-1" source="cYpTQVSlRbGwMReDjjp4-6" target="cYpTQVSlRbGwMReDjjp4-0">
          <mxGeometry relative="1" as="geometry" />
        </mxCell>
        <mxCell id="cYpTQVSlRbGwMReDjjp4-20" style="edgeStyle=orthogonalEdgeStyle;rounded=0;orthogonalLoop=1;jettySize=auto;html=1;exitX=0.5;exitY=1;exitDx=0;exitDy=0;entryX=0;entryY=0.5;entryDx=0;entryDy=0;" edge="1" parent="WIyWlLk6GJQsqaUBKTNV-1" source="cYpTQVSlRbGwMReDjjp4-0" target="cYpTQVSlRbGwMReDjjp4-9">
          <mxGeometry relative="1" as="geometry" />
        </mxCell>
        <mxCell id="cYpTQVSlRbGwMReDjjp4-21" value="Your Send Path" style="text;strokeColor=none;fillColor=none;align=left;verticalAlign=middle;spacingLeft=4;spacingRight=4;overflow=hidden;points=[[0,0.5],[1,0.5]];portConstraint=eastwest;rotatable=0;whiteSpace=wrap;html=1;fontColor=#0000ff;" vertex="1" parent="WIyWlLk6GJQsqaUBKTNV-1">
          <mxGeometry x="80" y="167" width="110" height="30" as="geometry" />
        </mxCell>
        <mxCell id="cYpTQVSlRbGwMReDjjp4-22" value="Your Receive Path" style="text;strokeColor=none;fillColor=none;align=left;verticalAlign=middle;spacingLeft=4;spacingRight=4;overflow=hidden;points=[[0,0.5],[1,0.5]];portConstraint=eastwest;rotatable=0;whiteSpace=wrap;html=1;fontColor=#009900;" vertex="1" parent="WIyWlLk6GJQsqaUBKTNV-1">
          <mxGeometry x="80" y="247" width="120" height="30" as="geometry" />
        </mxCell>
      </root>
    </mxGraphModel>
  </diagram>
  <diagram id="45ARnXBLo6mjj4X-4H-t" name="StartOS">
    <mxGraphModel dx="920" dy="650" grid="1" gridSize="10" guides="1" tooltips="1" connect="1" arrows="1" fold="1" page="1" pageScale="1" pageWidth="850" pageHeight="1100" math="0" shadow="0">
      <root>
        <mxCell id="0" />
        <mxCell id="1" parent="0" />
        <mxCell id="c043w1hBR9GDaP-zfiW3-1" value="Your SimpleX Client" style="rounded=0;whiteSpace=wrap;html=1;" vertex="1" parent="1">
          <mxGeometry x="10" y="246.5" width="120" height="60" as="geometry" />
        </mxCell>
        <mxCell id="QQI8T5Fq9s8Ce2_5Jmc7-3" value="Your StartOS Server" style="swimlane;whiteSpace=wrap;html=1;strokeColor=#666666;dashed=1;" vertex="1" parent="1">
          <mxGeometry x="240" y="126.5" width="350" height="303.5" as="geometry">
            <mxRectangle x="240" y="126.5" width="320" height="30" as="alternateBounds" />
          </mxGeometry>
        </mxCell>
        <mxCell id="QQI8T5Fq9s8Ce2_5Jmc7-2" value="Your receive queue N" style="rounded=0;whiteSpace=wrap;html=1;" vertex="1" parent="QQI8T5Fq9s8Ce2_5Jmc7-3">
          <mxGeometry x="55" y="216.75" width="150" height="33.5" as="geometry" />
        </mxCell>
        <mxCell id="QQI8T5Fq9s8Ce2_5Jmc7-6" value=".&lt;br style=&quot;font-size: 15px;&quot;&gt;.&lt;br style=&quot;font-size: 15px;&quot;&gt;." style="text;html=1;strokeColor=none;fillColor=none;align=center;verticalAlign=middle;whiteSpace=wrap;rounded=0;fontSize=15;fontStyle=1" vertex="1" parent="QQI8T5Fq9s8Ce2_5Jmc7-3">
          <mxGeometry x="100" y="160" width="60" height="30" as="geometry" />
        </mxCell>
        <mxCell id="L5sgTM-algucvjlP15PG-1" value="SimpleXMQ Service" style="swimlane;whiteSpace=wrap;html=1;" vertex="1" parent="QQI8T5Fq9s8Ce2_5Jmc7-3">
          <mxGeometry x="55" y="43.5" width="245" height="229.75" as="geometry" />
        </mxCell>
        <mxCell id="QQI8T5Fq9s8Ce2_5Jmc7-1" value="Your receive queue 1" style="rounded=0;whiteSpace=wrap;html=1;strokeColor=#009900;strokeWidth=2;fontColor=#009900;" vertex="1" parent="L5sgTM-algucvjlP15PG-1">
          <mxGeometry y="53.25" width="150" height="33.5" as="geometry" />
        </mxCell>
        <mxCell id="QQI8T5Fq9s8Ce2_5Jmc7-11" style="edgeStyle=orthogonalEdgeStyle;rounded=0;orthogonalLoop=1;jettySize=auto;html=1;exitX=0;exitY=0.5;exitDx=0;exitDy=0;entryX=1;entryY=0.5;entryDx=0;entryDy=0;strokeColor=#009900;strokeWidth=2;" edge="1" parent="1" source="QQI8T5Fq9s8Ce2_5Jmc7-8" target="QQI8T5Fq9s8Ce2_5Jmc7-1">
          <mxGeometry relative="1" as="geometry" />
        </mxCell>
        <mxCell id="QQI8T5Fq9s8Ce2_5Jmc7-8" value="Friend 1&#39;s SimpleX Client" style="rounded=0;whiteSpace=wrap;html=1;" vertex="1" parent="1">
          <mxGeometry x="710" y="210" width="120" height="60" as="geometry" />
        </mxCell>
        <mxCell id="QQI8T5Fq9s8Ce2_5Jmc7-12" style="edgeStyle=orthogonalEdgeStyle;rounded=0;orthogonalLoop=1;jettySize=auto;html=1;exitX=0;exitY=0.5;exitDx=0;exitDy=0;entryX=1;entryY=0.5;entryDx=0;entryDy=0;" edge="1" parent="1" source="QQI8T5Fq9s8Ce2_5Jmc7-9" target="QQI8T5Fq9s8Ce2_5Jmc7-2">
          <mxGeometry relative="1" as="geometry" />
        </mxCell>
        <mxCell id="QQI8T5Fq9s8Ce2_5Jmc7-9" value="Friend N&#39;s SimpleX Client" style="rounded=0;whiteSpace=wrap;html=1;" vertex="1" parent="1">
          <mxGeometry x="710" y="330" width="120" height="60" as="geometry" />
        </mxCell>
        <mxCell id="QQI8T5Fq9s8Ce2_5Jmc7-10" value=".&lt;br style=&quot;font-size: 15px;&quot;&gt;.&lt;br style=&quot;font-size: 15px;&quot;&gt;." style="text;html=1;strokeColor=none;fillColor=none;align=center;verticalAlign=middle;whiteSpace=wrap;rounded=0;fontSize=15;fontStyle=1" vertex="1" parent="1">
          <mxGeometry x="740" y="276.5" width="60" height="30" as="geometry" />
        </mxCell>
        <mxCell id="QQI8T5Fq9s8Ce2_5Jmc7-4" style="edgeStyle=orthogonalEdgeStyle;rounded=0;orthogonalLoop=1;jettySize=auto;html=1;exitX=1;exitY=0.25;exitDx=0;exitDy=0;entryX=0;entryY=0.5;entryDx=0;entryDy=0;startArrow=block;startFill=1;endArrow=none;endFill=0;strokeColor=#009900;strokeWidth=2;" edge="1" parent="1" source="c043w1hBR9GDaP-zfiW3-1" target="QQI8T5Fq9s8Ce2_5Jmc7-1">
          <mxGeometry relative="1" as="geometry" />
        </mxCell>
        <mxCell id="QQI8T5Fq9s8Ce2_5Jmc7-5" style="edgeStyle=orthogonalEdgeStyle;rounded=0;orthogonalLoop=1;jettySize=auto;html=1;exitX=0;exitY=0.5;exitDx=0;exitDy=0;entryX=1;entryY=0.75;entryDx=0;entryDy=0;" edge="1" parent="1" source="QQI8T5Fq9s8Ce2_5Jmc7-2" target="c043w1hBR9GDaP-zfiW3-1">
          <mxGeometry relative="1" as="geometry" />
        </mxCell>
        <mxCell id="QQI8T5Fq9s8Ce2_5Jmc7-22" value="Your receive path" style="text;strokeColor=none;fillColor=none;align=left;verticalAlign=middle;spacingLeft=4;spacingRight=4;overflow=hidden;points=[[0,0.5],[1,0.5]];portConstraint=eastwest;rotatable=0;whiteSpace=wrap;html=1;fontColor=#009900;" vertex="1" parent="1">
          <mxGeometry x="80" y="216.5" width="120" height="30" as="geometry" />
        </mxCell>
        <mxCell id="6BgNhebrwEKA74DxLJzn-1" value="SimpleX Hosted Servers (e.g. smp8.simplex.chat)" style="swimlane;whiteSpace=wrap;html=1;strokeColor=#666666;dashed=1;" vertex="1" parent="1">
          <mxGeometry x="240" y="490" width="350" height="180" as="geometry">
            <mxRectangle x="240" y="126.5" width="320" height="30" as="alternateBounds" />
          </mxGeometry>
        </mxCell>
        <mxCell id="6BgNhebrwEKA74DxLJzn-2" value="" style="rounded=0;whiteSpace=wrap;html=1;strokeColor=#d9d9d9;" vertex="1" parent="6BgNhebrwEKA74DxLJzn-1">
          <mxGeometry x="35" y="33.5" width="260" height="126.5" as="geometry" />
        </mxCell>
        <mxCell id="6BgNhebrwEKA74DxLJzn-3" value="" style="rounded=0;whiteSpace=wrap;html=1;strokeColor=#d9d9d9;" vertex="1" parent="6BgNhebrwEKA74DxLJzn-1">
          <mxGeometry x="45" y="43.5" width="260" height="116.5" as="geometry" />
        </mxCell>
        <mxCell id="6BgNhebrwEKA74DxLJzn-4" value="" style="rounded=0;whiteSpace=wrap;html=1;" vertex="1" parent="6BgNhebrwEKA74DxLJzn-1">
          <mxGeometry x="55" y="53.5" width="260" height="106.5" as="geometry" />
        </mxCell>
        <mxCell id="6BgNhebrwEKA74DxLJzn-8" value="Friend&#39;s receive queue" style="rounded=0;whiteSpace=wrap;html=1;strokeColor=#0000FF;strokeWidth=2;fontColor=#0000ff;" vertex="1" parent="6BgNhebrwEKA74DxLJzn-1">
          <mxGeometry x="165" y="100" width="150" height="33" as="geometry" />
        </mxCell>
        <mxCell id="QQI8T5Fq9s8Ce2_5Jmc7-17" style="edgeStyle=orthogonalEdgeStyle;rounded=0;orthogonalLoop=1;jettySize=auto;html=1;exitX=0.5;exitY=1;exitDx=0;exitDy=0;entryX=0;entryY=0.5;entryDx=0;entryDy=0;strokeColor=#0000ff;strokeWidth=2;" edge="1" parent="1" source="c043w1hBR9GDaP-zfiW3-1" target="6BgNhebrwEKA74DxLJzn-8">
          <mxGeometry relative="1" as="geometry">
            <mxPoint x="405" y="406.5" as="targetPoint" />
          </mxGeometry>
        </mxCell>
        <mxCell id="HcRf3M_WrS-ex1FsgTZn-1" style="edgeStyle=orthogonalEdgeStyle;rounded=0;orthogonalLoop=1;jettySize=auto;html=1;exitX=1;exitY=0.5;exitDx=0;exitDy=0;entryX=0.5;entryY=1;entryDx=0;entryDy=0;fontColor=#0000ff;strokeWidth=2;strokeColor=#0000ff;" edge="1" parent="1" source="6BgNhebrwEKA74DxLJzn-8" target="QQI8T5Fq9s8Ce2_5Jmc7-9">
          <mxGeometry relative="1" as="geometry" />
        </mxCell>
      </root>
    </mxGraphModel>
  </diagram>
  <diagram name="Advanced" id="V_dVao8MtADxJVetpTQG">
    <mxGraphModel dx="1242" dy="878" grid="1" gridSize="10" guides="1" tooltips="1" connect="1" arrows="1" fold="1" page="1" pageScale="1" pageWidth="850" pageHeight="1100" math="0" shadow="0">
      <root>
        <mxCell id="C-tOSAAx-kGhXghbOIyz-0" />
        <mxCell id="C-tOSAAx-kGhXghbOIyz-1" parent="C-tOSAAx-kGhXghbOIyz-0" />
        <mxCell id="C-tOSAAx-kGhXghbOIyz-2" value="Your SimpleX Client" style="rounded=0;whiteSpace=wrap;html=1;" vertex="1" parent="C-tOSAAx-kGhXghbOIyz-1">
          <mxGeometry x="10" y="246.5" width="120" height="60" as="geometry" />
        </mxCell>
        <mxCell id="C-tOSAAx-kGhXghbOIyz-3" value="Your StartOS Server" style="swimlane;whiteSpace=wrap;html=1;strokeColor=#666666;dashed=1;" vertex="1" parent="C-tOSAAx-kGhXghbOIyz-1">
          <mxGeometry x="240" y="126.5" width="350" height="303.5" as="geometry">
            <mxRectangle x="240" y="126.5" width="320" height="30" as="alternateBounds" />
          </mxGeometry>
        </mxCell>
        <mxCell id="C-tOSAAx-kGhXghbOIyz-4" value="Your receive queue N" style="rounded=0;whiteSpace=wrap;html=1;" vertex="1" parent="C-tOSAAx-kGhXghbOIyz-3">
          <mxGeometry x="55" y="216.75" width="150" height="33.5" as="geometry" />
        </mxCell>
        <mxCell id="C-tOSAAx-kGhXghbOIyz-5" value=".&lt;br style=&quot;font-size: 15px;&quot;&gt;.&lt;br style=&quot;font-size: 15px;&quot;&gt;." style="text;html=1;strokeColor=none;fillColor=none;align=center;verticalAlign=middle;whiteSpace=wrap;rounded=0;fontSize=15;fontStyle=1" vertex="1" parent="C-tOSAAx-kGhXghbOIyz-3">
          <mxGeometry x="100" y="160" width="60" height="30" as="geometry" />
        </mxCell>
        <mxCell id="C-tOSAAx-kGhXghbOIyz-6" value="SimpleXMQ Service" style="swimlane;whiteSpace=wrap;html=1;" vertex="1" parent="C-tOSAAx-kGhXghbOIyz-3">
          <mxGeometry x="55" y="43.5" width="245" height="229.75" as="geometry" />
        </mxCell>
        <mxCell id="C-tOSAAx-kGhXghbOIyz-7" value="Your receive queue 1" style="rounded=0;whiteSpace=wrap;html=1;strokeColor=#009900;strokeWidth=2;fontColor=#009900;" vertex="1" parent="C-tOSAAx-kGhXghbOIyz-6">
          <mxGeometry y="53.25" width="150" height="33.5" as="geometry" />
        </mxCell>
        <mxCell id="C-tOSAAx-kGhXghbOIyz-8" style="edgeStyle=orthogonalEdgeStyle;rounded=0;orthogonalLoop=1;jettySize=auto;html=1;exitX=0;exitY=0.5;exitDx=0;exitDy=0;entryX=1;entryY=0.5;entryDx=0;entryDy=0;strokeColor=#009900;strokeWidth=2;" edge="1" parent="C-tOSAAx-kGhXghbOIyz-1" source="C-tOSAAx-kGhXghbOIyz-9" target="C-tOSAAx-kGhXghbOIyz-7">
          <mxGeometry relative="1" as="geometry" />
        </mxCell>
        <mxCell id="C-tOSAAx-kGhXghbOIyz-9" value="Friend 1&#39;s SimpleX Client" style="rounded=0;whiteSpace=wrap;html=1;" vertex="1" parent="C-tOSAAx-kGhXghbOIyz-1">
          <mxGeometry x="710" y="210" width="120" height="60" as="geometry" />
        </mxCell>
        <mxCell id="C-tOSAAx-kGhXghbOIyz-10" style="edgeStyle=orthogonalEdgeStyle;rounded=0;orthogonalLoop=1;jettySize=auto;html=1;exitX=0;exitY=0.5;exitDx=0;exitDy=0;entryX=1;entryY=0.5;entryDx=0;entryDy=0;" edge="1" parent="C-tOSAAx-kGhXghbOIyz-1" source="C-tOSAAx-kGhXghbOIyz-11" target="C-tOSAAx-kGhXghbOIyz-4">
          <mxGeometry relative="1" as="geometry" />
        </mxCell>
        <mxCell id="C-tOSAAx-kGhXghbOIyz-11" value="Friend N&#39;s SimpleX Client" style="rounded=0;whiteSpace=wrap;html=1;" vertex="1" parent="C-tOSAAx-kGhXghbOIyz-1">
          <mxGeometry x="710" y="330" width="120" height="60" as="geometry" />
        </mxCell>
        <mxCell id="C-tOSAAx-kGhXghbOIyz-12" value=".&lt;br style=&quot;font-size: 15px;&quot;&gt;.&lt;br style=&quot;font-size: 15px;&quot;&gt;." style="text;html=1;strokeColor=none;fillColor=none;align=center;verticalAlign=middle;whiteSpace=wrap;rounded=0;fontSize=15;fontStyle=1" vertex="1" parent="C-tOSAAx-kGhXghbOIyz-1">
          <mxGeometry x="740" y="276.5" width="60" height="30" as="geometry" />
        </mxCell>
        <mxCell id="C-tOSAAx-kGhXghbOIyz-13" style="edgeStyle=orthogonalEdgeStyle;rounded=0;orthogonalLoop=1;jettySize=auto;html=1;exitX=1;exitY=0.25;exitDx=0;exitDy=0;entryX=0;entryY=0.5;entryDx=0;entryDy=0;startArrow=block;startFill=1;endArrow=none;endFill=0;strokeColor=#009900;strokeWidth=2;" edge="1" parent="C-tOSAAx-kGhXghbOIyz-1" source="C-tOSAAx-kGhXghbOIyz-2" target="C-tOSAAx-kGhXghbOIyz-7">
          <mxGeometry relative="1" as="geometry" />
        </mxCell>
        <mxCell id="C-tOSAAx-kGhXghbOIyz-14" style="edgeStyle=orthogonalEdgeStyle;rounded=0;orthogonalLoop=1;jettySize=auto;html=1;exitX=0;exitY=0.5;exitDx=0;exitDy=0;entryX=1;entryY=0.75;entryDx=0;entryDy=0;" edge="1" parent="C-tOSAAx-kGhXghbOIyz-1" source="C-tOSAAx-kGhXghbOIyz-4" target="C-tOSAAx-kGhXghbOIyz-2">
          <mxGeometry relative="1" as="geometry" />
        </mxCell>
        <mxCell id="C-tOSAAx-kGhXghbOIyz-15" value="Your receive path" style="text;strokeColor=none;fillColor=none;align=left;verticalAlign=middle;spacingLeft=4;spacingRight=4;overflow=hidden;points=[[0,0.5],[1,0.5]];portConstraint=eastwest;rotatable=0;whiteSpace=wrap;html=1;fontColor=#009900;" vertex="1" parent="C-tOSAAx-kGhXghbOIyz-1">
          <mxGeometry x="80" y="216.5" width="120" height="30" as="geometry" />
        </mxCell>
        <mxCell id="C-tOSAAx-kGhXghbOIyz-16" value="SimpleX Hosted Servers (e.g. smp8.simplex.chat)" style="swimlane;whiteSpace=wrap;html=1;strokeColor=#666666;dashed=1;" vertex="1" parent="C-tOSAAx-kGhXghbOIyz-1">
          <mxGeometry x="240" y="490" width="350" height="330" as="geometry">
            <mxRectangle x="240" y="126.5" width="320" height="30" as="alternateBounds" />
          </mxGeometry>
        </mxCell>
        <mxCell id="C-tOSAAx-kGhXghbOIyz-17" value="" style="rounded=0;whiteSpace=wrap;html=1;strokeColor=#d9d9d9;" vertex="1" parent="C-tOSAAx-kGhXghbOIyz-16">
          <mxGeometry x="35" y="33.5" width="260" height="243" as="geometry" />
        </mxCell>
        <mxCell id="C-tOSAAx-kGhXghbOIyz-18" value="" style="rounded=0;whiteSpace=wrap;html=1;strokeColor=#d9d9d9;" vertex="1" parent="C-tOSAAx-kGhXghbOIyz-16">
          <mxGeometry x="45" y="43.5" width="260" height="243" as="geometry" />
        </mxCell>
        <mxCell id="C-tOSAAx-kGhXghbOIyz-19" value="" style="rounded=0;whiteSpace=wrap;html=1;" vertex="1" parent="C-tOSAAx-kGhXghbOIyz-16">
          <mxGeometry x="55" y="53.5" width="260" height="243" as="geometry" />
        </mxCell>
        <mxCell id="C-tOSAAx-kGhXghbOIyz-20" value="Your receive queue N+1" style="rounded=0;whiteSpace=wrap;html=1;strokeColor=#000000;strokeWidth=1;" vertex="1" parent="C-tOSAAx-kGhXghbOIyz-16">
          <mxGeometry x="55" y="110" width="150" height="33.5" as="geometry" />
        </mxCell>
        <mxCell id="C-tOSAAx-kGhXghbOIyz-21" value="Friend&#39;s receive queue" style="rounded=0;whiteSpace=wrap;html=1;strokeColor=#0000FF;strokeWidth=2;fontColor=#0000ff;" vertex="1" parent="C-tOSAAx-kGhXghbOIyz-16">
          <mxGeometry x="165" y="53.5" width="150" height="33" as="geometry" />
        </mxCell>
        <mxCell id="C-tOSAAx-kGhXghbOIyz-22" value="Random&#39;s receive queue" style="rounded=0;whiteSpace=wrap;html=1;" vertex="1" parent="C-tOSAAx-kGhXghbOIyz-16">
          <mxGeometry x="165" y="160" width="150" height="33" as="geometry" />
        </mxCell>
        <mxCell id="C-tOSAAx-kGhXghbOIyz-23" style="edgeStyle=orthogonalEdgeStyle;rounded=0;orthogonalLoop=1;jettySize=auto;html=1;exitX=0;exitY=0.5;exitDx=0;exitDy=0;entryX=1;entryY=0.5;entryDx=0;entryDy=0;" edge="1" parent="C-tOSAAx-kGhXghbOIyz-1" source="C-tOSAAx-kGhXghbOIyz-24" target="C-tOSAAx-kGhXghbOIyz-20">
          <mxGeometry relative="1" as="geometry" />
        </mxCell>
        <mxCell id="C-tOSAAx-kGhXghbOIyz-24" value="Random Group Chat Person" style="rounded=0;whiteSpace=wrap;html=1;" vertex="1" parent="C-tOSAAx-kGhXghbOIyz-1">
          <mxGeometry x="710" y="586.75" width="120" height="60" as="geometry" />
        </mxCell>
        <mxCell id="C-tOSAAx-kGhXghbOIyz-25" style="edgeStyle=orthogonalEdgeStyle;rounded=0;orthogonalLoop=1;jettySize=auto;html=1;exitX=0.5;exitY=1;exitDx=0;exitDy=0;entryX=0;entryY=0.5;entryDx=0;entryDy=0;strokeColor=#0000ff;strokeWidth=2;" edge="1" parent="C-tOSAAx-kGhXghbOIyz-1" source="C-tOSAAx-kGhXghbOIyz-2" target="C-tOSAAx-kGhXghbOIyz-21">
          <mxGeometry relative="1" as="geometry">
            <mxPoint x="405" y="406.5" as="targetPoint" />
          </mxGeometry>
        </mxCell>
        <mxCell id="C-tOSAAx-kGhXghbOIyz-26" style="edgeStyle=orthogonalEdgeStyle;rounded=0;orthogonalLoop=1;jettySize=auto;html=1;exitX=1;exitY=0.5;exitDx=0;exitDy=0;entryX=0.5;entryY=1;entryDx=0;entryDy=0;fontColor=#0000ff;strokeWidth=2;strokeColor=#0000ff;" edge="1" parent="C-tOSAAx-kGhXghbOIyz-1" source="C-tOSAAx-kGhXghbOIyz-21" target="C-tOSAAx-kGhXghbOIyz-11">
          <mxGeometry relative="1" as="geometry" />
        </mxCell>
        <mxCell id="C-tOSAAx-kGhXghbOIyz-27" style="edgeStyle=orthogonalEdgeStyle;rounded=0;orthogonalLoop=1;jettySize=auto;html=1;exitX=0;exitY=0.5;exitDx=0;exitDy=0;entryX=0.213;entryY=1.009;entryDx=0;entryDy=0;entryPerimeter=0;" edge="1" parent="C-tOSAAx-kGhXghbOIyz-1" source="C-tOSAAx-kGhXghbOIyz-20" target="C-tOSAAx-kGhXghbOIyz-2">
          <mxGeometry relative="1" as="geometry" />
        </mxCell>
        <mxCell id="C-tOSAAx-kGhXghbOIyz-28" style="edgeStyle=orthogonalEdgeStyle;rounded=0;orthogonalLoop=1;jettySize=auto;html=1;exitX=0;exitY=0.5;exitDx=0;exitDy=0;entryX=0.09;entryY=0.984;entryDx=0;entryDy=0;entryPerimeter=0;strokeColor=default;endArrow=none;endFill=0;startArrow=classic;startFill=1;" edge="1" parent="C-tOSAAx-kGhXghbOIyz-1" source="C-tOSAAx-kGhXghbOIyz-22" target="C-tOSAAx-kGhXghbOIyz-2">
          <mxGeometry relative="1" as="geometry" />
        </mxCell>
        <mxCell id="C-tOSAAx-kGhXghbOIyz-29" style="edgeStyle=orthogonalEdgeStyle;rounded=0;orthogonalLoop=1;jettySize=auto;html=1;exitX=1;exitY=0.5;exitDx=0;exitDy=0;entryX=0.5;entryY=1;entryDx=0;entryDy=0;" edge="1" parent="C-tOSAAx-kGhXghbOIyz-1" source="C-tOSAAx-kGhXghbOIyz-22" target="C-tOSAAx-kGhXghbOIyz-24">
          <mxGeometry relative="1" as="geometry" />
        </mxCell>
      </root>
    </mxGraphModel>
  </diagram>
</mxfile>
